<?xml version="1.0" encoding="UTF-8" standalone="no"?>
<!-- Created with Inkscape (http://www.inkscape.org/) -->
<svg xmlns:dc="http://purl.org/dc/elements/1.1/" xmlns:cc="http://creativecommons.org/ns#" xmlns:rdf="http://www.w3.org/1999/02/22-rdf-syntax-ns#" xmlns:svg="http://www.w3.org/2000/svg" xmlns="http://www.w3.org/2000/svg" xmlns:inkscape="http://www.inkscape.org/namespaces/inkscape" version="1.1" width="458.6412" height="843.42352" id="svg2" inkscape:version="0.91 r13725">
  <defs id="defs4"/>
  <metadata id="metadata7">
    <rdf:RDF>
      <cc:Work rdf:about="">
        <dc:format>image/svg+xml</dc:format>
        <dc:type rdf:resource="http://purl.org/dc/dcmitype/StillImage"/>
        <dc:title/>
      </cc:Work>
    </rdf:RDF>
  </metadata>
  <g transform="translate(-972.92033,-133.74339)" id="layer2">
    <path d="m 1204.6623,257.04183 c -24.8972,-2.82405 -32.3701,1.63943 -45.3635,17.69537 -13.5231,16.71045 -15.9642,137.30596 -11.814,201.60208 3.8664,14.90484 14.1585,26.79721 24.8089,35.69352 17.5966,8.8749 36.9524,11.35763 55.6774,14.73377 19.9251,2.29096 40.2775,4.91705 59.9828,0.24469 70.8812,-4.92733 49.634,-36.8936 67.6074,-54.14647 -1.5081,-3.50159 -7.5078,5.64762 -12.3957,6.78974 l -1.5475,-0.84103 c -7.7712,15.75809 -16.7612,32.26804 -32.569,37.11476 -23.7528,9.68681 -49.4931,6.14288 -74.3062,6.06726 -16.5991,-0.8035 -34.0169,-0.96015 -48.9854,-11.01763 -8.9599,-6.69319 -21.4549,-10.0813 -26.9179,-21.16343 -11.4154,-62.87286 0.2041,-143.9943 2.6625,-202.74111 1.9735,-12.1356 13.9776,-15.3405 22.1704,-20.20256 9.0631,-4.67562 13.498,-4.93702 28.9391,-3.55406 6.3336,1.94428 12.4539,2.50723 15.0467,-5.46614 -6.5921,-1.22342 -14.8436,-1.37074 -22.9956,-0.80882 z m 95.1371,7.84186 -1.1221,7.60926 c 0,0 35.0237,5.34461 42.6788,6.71609 7.6549,1.3715 11.6175,7.50174 15.8886,14.20677 4.271,6.70504 4.8159,16.24329 6.6676,33.98404 1.8515,17.74078 -1.4054,32.29772 -2.2253,51.6282 -0.8199,19.33048 1.3855,42.23337 -1.2343,56.55412 -2.6196,14.32073 -8.0743,26.6239 -9.7904,39.1808 4.7165,29.30014 -54.6229,54.166 -12.4825,41.66219 2.2409,-0.37049 10.5256,-11.18459 13.8692,-17.97331 5.2327,-10.62438 7.4524,-22.62024 9.0675,-34.35265 8.1583,-59.26155 29.2194,-144.70513 2.7894,-179.43974 -13.5978,-14.34757 -43.3497,-16.65621 -64.1065,-19.77577 z m -96.33,2.81757 c -17.4168,0.98327 -31.8903,6.98484 -37.3627,23.82454 -1.4939,4.91101 -3.0986,104.11372 -4.3827,119.59474 -1.2835,15.48097 -4.7811,61.60457 0.7066,76.18871 5.4878,14.58412 51.2878,24.29097 78.9797,27.28447 24.2858,2.62529 63.2376,-2.76494 72.7785,-8.5735 9.541,-5.80858 27.3336,-30.71799 27.3336,-30.71799 0,0 0.1863,-0.8108 0.2156,-0.94009 0.1165,0.8866 0.3025,2.40459 0.3025,2.40459 0,0 11.7589,-38.78542 13.9641,-51.08831 2.2051,-12.30289 5.2559,-52.67747 3.7799,-78.99937 -0.9158,-16.33123 -5.5161,-44.17767 -7.8102,-48.44511 -2.2941,-4.26746 -14.1173,-13.80161 -14.1173,-13.80161 -45.2572,-4.33907 -92.5153,-18.33861 -134.3876,-16.73107 z" inkscape:connector-curvature="0" id="path4087" style="color:#000000;fill:#000000;fill-opacity:1;fill-rule:nonzero;stroke:none;stroke-width:2;marker:none;visibility:visible;display:inline;overflow:visible;enable-background:accumulate"/>
    <path d="m 1301.9891,523.90223 c 0,0 24.0617,-7.88786 29.1213,-8.82355 5.0597,-0.93569 9.1454,-5.89104 9.1454,-5.89104 0,0 14.6244,36.67896 16.0799,51.58759 1.4555,14.90862 3.4655,15.96907 -1.802,17.46617 -5.2676,1.4971 -46.0913,-14.78387 -46.0913,-14.78387 l -2.9804,-11.41539 c 0,0 13.9314,12.47584 20.8624,6.92409 6.931,-5.55175 6.0993,-10.23019 1.7328,-17.40379 -4.3666,-7.17361 -26.0681,-17.66021 -26.0681,-17.66021 z" inkscape:connector-curvature="0" id="path4089" style="color:#000000;fill:#000000;fill-opacity:1;fill-rule:nonzero;stroke:none;stroke-width:2;marker:none;visibility:visible;display:inline;overflow:visible;enable-background:accumulate"/>
    <path d="m 1148.625,540.0625 c -1.0152,0.005 -1.9397,0.0384 -2.7188,0.125 -6.2325,0.69251 -17.311,-1.04629 -30.4687,1.03125 -13.1577,2.07754 -13.7833,2.89894 -23.0937,6.5 -9.3106,3.60107 -19.9874,12.40589 -30.375,18.5 -10.3877,6.09411 -16.391,11.90881 -27.625,22.78125 -11.2341,10.87244 -10.3783,15.71573 -15.6876,30.8125 -5.3093,15.09676 -4.6282,20.92656 -1.7812,31.9375 2.847,11.01094 11.6306,30.2678 25.25,41.625 87.5889,53.39195 255.532,46.71535 306.0625,-2.53125 12.8917,-14.22245 18.9932,-23.27694 24.4687,-37.1875 5.4756,-13.91056 9.218,-6.71939 7,-23.1875 -2.2179,-16.4681 -0.2789,-9.9934 -4.4374,-22.71875 -4.1587,-12.72535 -7.0791,-12.26883 -9.5,-18.40625 -6.1669,-15.6344 -79.4496,-32.1429 -79.4496,-32.1429 l 1.0312,2.875 L 1349.7188,582 c 0,0 14.1341,8.2978 15.3124,16.84375 1.1783,8.54594 -3.9508,31.24412 -10.8124,44.34375 -69.7609,84.10746 -192.7755,72.20709 -296.9376,32.84375 l 0,-0.0312 c 0,0 -11.0141,-7.29439 -20.0937,-13.25 -9.0796,-5.9556 -10.7093,-25.41556 -10.0937,-36.21875 0.6156,-10.80319 13.6396,-34.25603 28.875,-46.375 15.2352,-12.11896 29.0144,-22.45141 45.25,-27.4375 16.2355,-4.98609 45.3124,-9 45.3124,-9 0,0 22.6083,6.07774 38.8438,6.5625 11.0108,0.32876 30.0984,2.56118 41.375,3.96875 -7.1463,-0.99875 -16.802,-2.55421 -22.8125,-4.4375 -10.3877,-3.25481 -30.2369,-5.52798 -33.4687,-6.84375 -2.8278,-1.1513 -14.7376,-2.94128 -21.8438,-2.90625 z m 78.125,14.1875 c 5.2043,0.72734 9.125,1.15625 9.125,1.15625 0,0 -3.7741,-0.48834 -9.125,-1.15625 z" inkscape:connector-curvature="0" id="path4095" style="color:#000000;fill:#000000;fill-opacity:1;fill-rule:nonzero;stroke:none;stroke-width:2;marker:none;visibility:visible;display:inline;overflow:visible;enable-background:accumulate"/>
    <path d="m 981.86135,511.19677 -1.66344,-4.30416 c 0,0 -7.20827,-0.93569 -7.27758,-5.80127 10.52564,-29.06098 54.06137,-39.88619 74.85507,-36.61658 12.3372,1.99614 14.4858,-2.93182 14.3472,6.11316 -0.1387,9.04498 3.4655,10.4797 -7.6935,17.21666 -11.1589,6.73695 -16.981,8.9826 -16.5651,11.35301 0.4159,2.37041 0.4852,11.72728 0.4852,11.72728 z" inkscape:connector-curvature="0" id="path4097" style="color:#000000;fill:#000000;fill-opacity:1;fill-rule:nonzero;stroke:none;stroke-width:2;marker:none;visibility:visible;display:inline;overflow:visible;enable-background:accumulate"/>
    <path d="m 1203.0729,146.89142 c -17.3022,6.75759 -24.2559,45.40533 -17.2917,61.85858 6.9644,16.45325 36.9063,33.6875 36.9063,33.6875 0,0 70.1769,10.83655 86.125,11.0625 0.01,0.003 0.022,-0.003 0.031,0 3.9738,1.4295 9.7516,3.30054 16.625,-6.90625 9.7034,-14.4096 14.6374,-17.22278 19.2812,-35.4375 4.6438,-18.21472 4.6999,-28.85752 3.9375,-35.96875 -0.7624,-7.11123 -7.5215,-16.00667 -16.7397,-18.87612 -34.2806,-0.46313 -100.4135,-20.10075 -128.8749,-9.41996 z" inkscape:connector-curvature="0" id="path4111" style="color:#000000;fill:#000000;fill-opacity:1;fill-rule:nonzero;stroke:none;stroke-width:2;marker:none;visibility:visible;display:inline;overflow:visible;enable-background:accumulate"/>
    <path d="m 1196.5,137.3125 c -4.8502,1.67952 -9.7896,1.97385 -14.2188,16.8125 -4.4291,14.83864 -5.231,32.56718 -4.25,50.625 0.9811,18.05782 10.9638,25.83711 14.375,29.90625 3.4113,4.06911 22.8684,10.36305 26.625,11.625 3.7568,1.26196 5.875,-3.875 5.875,-3.875 l -19.2187,-2.75 c 0,0 -11.2852,-5.25047 -19.25,-20.8125 -7.9648,-15.56203 -3.1225,-27.11257 -3.5,-39.875 -0.3776,-12.76241 2.0781,-22.61511 6.125,-30.21875 4.0469,-7.60367 13.9215,-10.1994 25.0937,-10.875 41.6935,5.26059 78.0077,1.47239 118.75,13.40625 10.6739,3.36848 19.6083,8.29743 21.6876,16.65625 2.0793,8.35881 2.0592,18.5238 -1.4063,30.8125 -3.4655,12.2887 -1.5883,24.65049 -13.0937,37.8125 -11.5055,13.16201 -23.6876,15.53125 -23.6876,15.53125 l -19.3437,-2 c 0,0 0.8305,5.4994 4.7813,5.1875 3.9507,-0.31189 24.3278,-1.69355 28.625,-4.8125 4.2971,-3.11896 15.8818,-8.22097 21.2187,-25.5 5.3369,-17.27903 8.8493,-34.68622 8.1563,-50.15625 -0.6931,-15.47004 -5.3903,-16.97418 -9.6876,-19.78125 -47.749,-12.32487 -103.9655,-28.58107 -153.6562,-17.71875 z" inkscape:connector-curvature="0" id="path4113" style="color:#000000;fill:#000000;fill-opacity:1;fill-rule:nonzero;stroke:none;stroke-width:2;marker:none;visibility:visible;display:inline;overflow:visible;enable-background:accumulate"/>
    <path d="m 1269.9459,781.86899 c 0,0 22.9365,-6.35166 29.7979,-8.64532 6.8613,-2.29365 28.9157,-0.70574 28.9157,-0.70574 0,0 1.9604,9.88036 -4.1168,11.90936 -6.0772,2.02901 -5.5871,3.61692 -5.5871,3.61692 0,0 5.8812,4.76374 -4.7049,7.49849 -10.5861,2.73474 -13.7228,3.88157 -17.5455,-5.20484 -3.8228,-9.0864 0,-14.02658 0,-14.02658 z" inkscape:connector-curvature="0" id="path4151" style="color:#000000;fill:#000000;fill-opacity:1;fill-rule:nonzero;stroke:none;stroke-width:2;marker:none;visibility:visible;display:inline;overflow:visible;enable-background:accumulate"/>
    <path d="m 1373.8465,862.76442 -11.0762,5.99879 c 0,0 -6.7634,13.40906 0.5881,20.55468 7.3514,7.14561 16.4673,7.5867 17.1534,2.73474 0.6861,-4.85196 2.6465,-2.82296 2.6465,-2.82296 0,0 0.9802,8.73353 9.0178,2.64652 8.0376,-6.087 11.9584,-20.46645 11.9584,-20.46645 0,0 -3.5287,5.29305 -14.7029,1.14682 -11.1743,-4.14622 -15.5851,-9.79214 -15.5851,-9.79214 z" inkscape:connector-curvature="0" id="path4153" style="color:#000000;fill:#000000;fill-opacity:1;fill-rule:nonzero;stroke:none;stroke-width:2;marker:none;visibility:visible;display:inline;overflow:visible;enable-background:accumulate"/>
    <path d="m 1212.6045,787.25025 c -4.2148,-1.41148 -11.7623,0.0882 -11.7623,0.0882 l -18.0356,113.88878 12.9386,0.35287 z" inkscape:connector-curvature="0" id="path4157" style="color:#000000;fill:#000000;fill-opacity:1;fill-rule:nonzero;stroke:none;stroke-width:2;marker:none;visibility:visible;display:inline;overflow:visible;enable-background:accumulate"/>
    <path d="m 1226.6213,783.89799 -0.8822,28.84712 c 0,0 56.6552,15.61449 63.5166,15.08519 6.8614,-0.52931 86.8452,36.52204 86.8452,36.52204 l 0.8822,-18.17281 c 0,0 -87.3353,-47.54922 -102.1363,-50.28396 -14.8009,-2.73475 -48.2255,-11.99758 -48.2255,-11.99758 z" inkscape:connector-curvature="0" id="path4159" style="color:#000000;fill:#000000;fill-opacity:1;fill-rule:nonzero;stroke:none;stroke-width:2;marker:none;visibility:visible;display:inline;overflow:visible;enable-background:accumulate"/>
    <path d="m 1226.8173,772.42971 c 0,0 22.3485,-13.1444 31.7583,-15.43806 9.4099,-2.29365 51.0681,-2.20543 51.0681,-2.20543 l 8.3317,-3.79335 6.3713,-0.88218 c 0,0 -8.2337,-7.14562 -11.9584,-3.96979 -3.7248,3.17583 -8.5277,4.76375 -8.5277,4.76375 0,0 -46.7553,-2.20544 -58.9097,3.17583 -12.1544,5.38126 -19.7019,10.23323 -19.7019,10.23323 z" inkscape:connector-curvature="0" id="path4161" style="color:#000000;fill:#000000;fill-opacity:1;fill-rule:nonzero;stroke:none;stroke-width:2;marker:none;visibility:visible;display:inline;overflow:visible;enable-background:accumulate"/>
    <path d="m 1382.7662,843.9741 c 0,0 4.803,11.02718 11.4683,6.79274 6.6653,-4.23444 5.6851,-5.99879 5.6851,-5.99879 0,0 -9.4098,-4.5873 -12.8405,-3.26404 -3.4307,1.32326 -4.3129,2.47009 -4.3129,2.47009 z" inkscape:connector-curvature="0" id="path4163" style="color:#000000;fill:#000000;fill-opacity:1;fill-rule:nonzero;stroke:none;stroke-width:2;marker:none;visibility:visible;display:inline;overflow:visible;enable-background:accumulate"/>
    <path d="m 1132.5312,742.09375 -10.3124,0.15625 -1.4688,15 c 0,0 -5.9727,-5.64994 -10.1875,7.40625 -4.2149,13.05618 1.7813,22.15625 1.7813,22.15625 11.0955,5.22929 18.6592,-2.25579 27.5312,-5.03125 0,0 -3.4293,-9.26556 0.6875,-13.5 4.1168,-4.23444 6.4687,-4.15625 6.4687,-4.15625 l 19,13.78125 c -48.8097,14.17446 -109.3577,34.41736 -135.8437,44.5 -14.1779,8.65304 2.5153,5.75535 6.9274,5.69714 -3.737,-3.87703 6.6454,-4.36074 21.7289,-11.75964 41.0849,-9.84652 63.7559,-21.02644 115.625,-35.71875 13.8207,-3.79335 26.2812,-4.125 26.2812,-4.125 l -4.9062,-13.5 c 0,0 -24.715,-14.30174 -36.2813,-15.625 -11.5663,-1.32326 -26.4375,-2.03125 -26.4375,-2.03125 z" inkscape:connector-curvature="0" id="path4165" style="color:#000000;fill:#000000;fill-opacity:1;fill-rule:nonzero;stroke:none;stroke-width:2;marker:none;visibility:visible;display:inline;overflow:visible;enable-background:accumulate"/>
    <path d="m 1034.8953,845.47379 c -29.8377,20.05475 -6.6865,46.39703 -0.3921,32.19939 3.0386,-8.5571 0.3921,-32.19939 0.3921,-32.19939 z" inkscape:connector-curvature="0" id="path4169" style="color:#000000;fill:#000000;fill-opacity:1;fill-rule:nonzero;stroke:none;stroke-width:2;marker:none;visibility:visible;display:inline;overflow:visible;enable-background:accumulate"/>
    <path d="m 1024.2112,850.85506 c 0,0 -5.8812,11.64471 -7.1555,17.73172 -1.2742,6.087 8.3317,16.23201 8.3317,16.23201 -11.9041,2.0682 -24.2967,-2.41969 -23.7207,-11.99757 1.1302,-11.00088 4.4389,-15.30082 12.2524,-23.02477 z" inkscape:connector-curvature="0" id="path4171" style="color:#000000;fill:#000000;fill-opacity:1;fill-rule:nonzero;stroke:none;stroke-width:2;marker:none;visibility:visible;display:inline;overflow:visible;enable-background:accumulate"/>
    <path d="m 1196.3333,786.54451 -2.4505,22.31903 -65.0849,8.38066 31.5623,-10.93897 -26.1712,1.85257 29.7979,-11.38006 -26.0732,1.4997 c 19.2808,-4.38746 38.2021,-16.05414 58.4196,-11.73293 z" inkscape:connector-curvature="0" id="path4173" style="color:#000000;fill:#000000;fill-opacity:1;fill-rule:nonzero;stroke:none;stroke-width:2;marker:none;visibility:visible;display:inline;overflow:visible;enable-background:accumulate"/>
    <path d="m 1198.4358,724.3824 c 1.0563,9.04937 -0.9299,52.64622 5.0529,55.89867 5.4891,2.55831 9.4254,2.13649 9.4254,2.13649 -15.0407,-28.46203 4.2986,-66.15034 1.3979,-52.97009" inkscape:connector-curvature="0" id="path4175" style="color:#000000;fill:#000000;fill-opacity:1;fill-rule:nonzero;stroke:none;stroke-width:2;marker:none;visibility:visible;display:inline;overflow:visible;enable-background:accumulate"/>
    <path d="m 1217.0154,793.24904 -2.2023,23.52959 9.2462,-3.44048 c 0,0 1.7778,-21.0595 -1.0647,-15.23715 -2.8426,5.82236 -5.9792,-4.85196 -5.9792,-4.85196 z" inkscape:connector-curvature="0" id="path4177" style="color:#000000;fill:#000000;fill-opacity:1;fill-rule:nonzero;stroke:none;stroke-width:2;marker:none;visibility:visible;display:inline;overflow:visible;enable-background:accumulate"/>
    <path d="m 1185,902.6875 c -13.9577,1.76631 -11.345,16.26572 -12.5625,26.4375 L 1199.125,933 c 0,0 -12.5093,-7.15372 -12.7812,-9.40625 4.8622,-0.41194 13.7514,1.29128 12.4062,-4.59375 l -12.125,-4 c 1.2246,0.23379 21.7558,1.09396 10.514,-9.26411 -4.7103,-4.34002 -8.9419,-3.0273 -12.139,-3.04839 z" inkscape:connector-curvature="0" id="path4181" style="color:#000000;fill:#000000;fill-opacity:1;fill-rule:nonzero;stroke:none;stroke-width:2;marker:none;visibility:visible;display:inline;overflow:visible;enable-background:accumulate"/>
    <path d="m 1394.2188,485.84375 c -3.7935,-0.007 -7.5544,0.47147 -10.5,1.875 -3.9108,1.86333 -5.5021,3.48993 -6.0313,4.78125 -3.2557,2.91334 -2.9235,16.65423 0.625,43.375 3.6388,27.40006 5.699,23.07272 6.1563,21.5625 l -14.4688,69.875 -9.4375,38.3125 c 0,0 16.0747,-18.582 27.7187,-44.78125 11.6443,-26.19926 11.375,-37.8125 11.375,-37.8125 17.9243,-7.09571 37.1955,-29.72913 30.0938,-45.03125 -0.1656,-0.78596 -0.3594,-1.62853 -0.5625,-2.5 0.1342,-0.0417 0.2794,-0.0828 0.4063,-0.125 8.1762,-6.96356 -11.31,-40.07632 -18.5626,-47.15625 0,0 -8.4669,-2.36026 -16.8124,-2.375 z m -7.8126,22.3125 c 1.0165,1.58459 1.8572,2.85758 2.9376,4.53125 l 0.3437,0.71875 -0.9687,28.8125 c 0,0 -7.9231,-7.36356 -5.8438,-17.59375 1.8726,-9.21341 3.2434,-15.2157 3.5312,-16.46875 z m 26.4967,32.72059 c 2.3016,0.31396 4.5546,4.50997 7.0625,0.28125 1.5535,1.91298 1.8093,0.92109 0.4721,5.93566 -3.3269,12.47584 -11.0641,16.97407 -15.5,19.71875 -3.8681,2.39345 5.5476,-19.05441 7.9654,-25.93566 z" inkscape:connector-curvature="0" id="path4266" style="color:#000000;fill:#000000;fill-opacity:1;fill-rule:nonzero;stroke:none;stroke-width:2;marker:none;visibility:visible;display:inline;overflow:visible;enable-background:accumulate"/>
    <path d="m 1253.5913,249.36838 35.6259,3.53181 1.6158,19.32109 -72.406,-8.51789 5.3862,-19.04409 z" inkscape:connector-curvature="0" id="path3126" style="color:#000000;fill:#000000;fill-opacity:1;fill-rule:nonzero;stroke:none;stroke-width:2;marker:none;visibility:visible;display:inline;overflow:visible;enable-background:accumulate"/>
    <path d="m 1295.0314,254.24194 1.0003,16.82804 5.8479,2.5623 -1.8468,-26.10771 -6.1556,-0.76176 z" inkscape:connector-curvature="0" id="path3131" style="color:#000000;fill:#000000;fill-opacity:1;fill-rule:nonzero;stroke:none;stroke-width:2;marker:none;visibility:visible;display:inline;overflow:visible;enable-background:accumulate"/>
    <path d="m 1207.1593,520.10312 c 2.3853,6.78662 -16.4664,24.99969 -7.5407,29.50102 8.9257,4.50133 35.472,8.24089 46.6292,7.34063 11.1571,-0.90027 43.7821,3.94732 43.7821,3.94732 0,0 -8.0024,-25.5537 -9.0027,-29.15477 -1.0003,-3.60106 -2.6161,-3.73956 -16.928,-3.60106 -14.312,0.1385 -25.8538,0.34625 -36.0876,-4.22433 -10.2338,-4.57058 -20.8523,-3.80881 -20.8523,-3.80881 z" inkscape:connector-curvature="0" id="path3140" style="color:#000000;fill:#000000;fill-opacity:1;fill-rule:nonzero;stroke:none;stroke-width:2;marker:none;visibility:visible;display:inline;overflow:visible;enable-background:accumulate"/>
    <path d="m 1281.8736,526.05872 c 2.1545,8.31015 6.8482,33.93309 15.0814,36.42614 8.2332,2.49304 19.5442,12.18822 16.6972,-2.49304 -2.847,-14.68125 -16.0816,-34.48711 -16.0816,-34.48711 z" inkscape:connector-curvature="0" id="path3142" style="color:#000000;fill:#000000;fill-opacity:1;fill-rule:nonzero;stroke:none;stroke-width:2;marker:none;visibility:visible;display:inline;overflow:visible;enable-background:accumulate"/>
    <path d="m 1191.6758,516.07407 c -1.385,4.36283 19.4077,8.39188 -0.5982,12.13144 -20.0059,3.73957 -26.5463,1.03877 -25.4691,-3.18555 1.0773,-4.22433 13.3886,-20.08286 10.9264,-19.8751 -2.4623,0.20775 -17.9284,-13.01923 -17.9284,-13.01923 0,0 -13.7733,19.11333 -16.0817,26.17696 -2.3084,7.06362 6.0787,16.41253 13.5424,22.92215 7.4638,6.50961 14.6198,2.00829 28.1622,4.57058 13.5425,2.5623 8.6306,1.14018 8.6306,1.14018 l 12.686,-27.57327 z" inkscape:connector-curvature="0" id="path3144" style="color:#000000;fill:#000000;fill-opacity:1;fill-rule:nonzero;stroke:none;stroke-width:2;marker:none;visibility:visible;display:inline;overflow:visible;enable-background:accumulate"/>
    <path d="m 1056.0312,476.4375 -4.4374,6.4375 c 1.9236,6.71737 8.2897,16.53534 -4.4063,25.46875 -11.6832,10.62106 -11.6956,-1.34801 -10.9375,-12.75 0,0 -25.9944,5.11999 -28.6875,5.8125 -2.6931,0.69251 -9,-3.25 -9,-3.25 l -14.84375,8.46875 c 0,0 3.01032,9.41536 8.78125,17.65625 3.49774,4.99477 28.0611,14.48681 33.1551,23.04629 l -0.416,-14.6695 c -8.3496,-16.94945 -20.2302,-6.30876 -25.1492,-13.09533 -3.05512,-31.15038 31.6087,38.27189 38.2539,57.12479 1.4507,5.31832 1.1356,9.60895 0.8124,12.4375 -0.3551,-1.20347 -1.0286,-2.51534 -1.7812,-3.875 l -8.1562,9.0625 c 0.1619,0.79353 0.3149,1.5684 0.5,2.40625 2.4622,11.14945 2.6305,0.26156 8.0937,-3.0625 0.5122,-0.31163 0.8961,-0.65847 1.1563,-1.0625 0.2172,0.32554 0.7761,0.0976 1.9062,-0.75 4.6168,-3.46256 21.2387,-14.52491 18.4688,-19.71875 -2.5642,-4.80775 -13.8789,-31.86091 -18.9063,-47.0625 13.4338,-7.18888 26.3886,-19.42539 25.3125,-26.90625 -2.0006,-12.74222 -9.7188,-21.71875 -9.7188,-21.71875 z" inkscape:connector-curvature="0" id="path3146" style="color:#000000;fill:#000000;fill-opacity:1;fill-rule:nonzero;stroke:none;stroke-width:2;marker:none;visibility:visible;display:inline;overflow:visible;enable-background:accumulate"/>
    <path d="m 1037.2341,844.51909 c 0,0 -2.0775,32.89433 0.3078,33.30983 9.7737,0.17415 13.9249,-16.40525 11.1571,-21.05237 -2.4777,-12.38997 -11.4649,-12.25746 -11.4649,-12.25746 z" inkscape:connector-curvature="0" id="path3152" style="color:#000000;fill:#000000;fill-opacity:1;fill-rule:nonzero;stroke:none;stroke-width:2;marker:none;visibility:visible;display:inline;overflow:visible;enable-background:accumulate"/>
    <path d="m 1050.2238,846.87423 c 0,0 22.1745,-8.31074 36.5634,-12.32731 14.3889,-4.01658 30.8553,-10.59544 30.8553,-10.59544 l -34.4718,4.91684 18.3901,-11.28795 -29.855,8.03314 25.1613,-16.27404 c -17.8815,8.97022 -37.9137,14.04776 -54.8624,24.86119 5.5907,3.62643 5.6845,6.58165 8.2191,12.67357 z" inkscape:connector-curvature="0" id="path3154" style="color:#000000;fill:#000000;fill-opacity:1;fill-rule:nonzero;stroke:none;stroke-width:2;marker:none;visibility:visible;display:inline;overflow:visible;enable-background:accumulate"/>
    <path d="m 1195.484,935.11114 c -4.0012,-0.90027 -24.161,-3.36607 -24.161,-3.36607 -7.3611,10.53259 -6.8781,31.2415 -5.147,42.02853 l 25.3152,3.39331 c -1.6223,-12.40772 0.8918,-27.0717 3.9928,-42.05577 z" inkscape:connector-curvature="0" id="path3160" style="color:#000000;fill:#000000;fill-opacity:1;fill-rule:nonzero;stroke:none;stroke-width:2;marker:none;visibility:visible;display:inline;overflow:visible;enable-background:accumulate"/>
    <path d="m 1198.2624,938.59398 c -4.8234,5.4528 -6.404,33.40911 -2.2314,31.99406 2.6457,-0.89722 3.3856,-4.29358 5.0784,-14.54275 1.6928,-10.24918 -2.2314,-21.39863 -2.2314,-21.39863 z" inkscape:connector-curvature="0" id="path3162" style="color:#000000;fill:#000000;fill-opacity:1;fill-rule:nonzero;stroke:none;stroke-width:2;marker:none;visibility:visible;display:inline;overflow:visible;enable-background:accumulate"/>
    <path d="m 1165.1757,937.41671 c -0.9233,5.05534 -1.9236,28.393 -1.9236,28.393 0,0 -6.6943,-1.59278 -5.6171,-11.70346 1.0773,-10.11068 7.5407,-16.68954 7.5407,-16.68954 z" inkscape:connector-curvature="0" id="path3164" style="color:#000000;fill:#000000;fill-opacity:1;fill-rule:nonzero;stroke:none;stroke-width:2;marker:none;visibility:visible;display:inline;overflow:visible;enable-background:accumulate"/>
    <path d="m 1244.5068,768.37449 -13.0038,5.88636 22.5451,7.75613 25.1613,-6.92512 -17.005,-3.18555 9.1565,-6.85587 -13.6963,3.87806 5.8479,-8.72565 z" inkscape:connector-curvature="0" id="path3166" style="color:#000000;fill:#000000;fill-opacity:1;fill-rule:nonzero;stroke:none;stroke-width:2;marker:none;visibility:visible;display:inline;overflow:visible;enable-background:accumulate"/>
    <path d="m 1354.9265,467.35101 -11.0418,6.89049 c 0,0 3.2318,-7.029 5.9633,-14.57738 2.7316,-7.54838 6.425,-27.80436 6.425,-27.80436 0,0 4.4629,-4.22432 2.924,3.87807 -1.539,8.10239 -4.2705,31.61318 -4.2705,31.61318 z" inkscape:connector-curvature="0" id="path3170" style="color:#000000;fill:#000000;fill-opacity:1;fill-rule:nonzero;stroke:none;stroke-width:2;marker:none;visibility:visible;display:inline;overflow:visible;enable-background:accumulate"/>
    <path d="m 1358.8892,425.48865 c 0.3078,-1.73128 3.9939,-46.68436 3.9939,-46.68436 0,0 0.6613,24.80097 0.2381,30.6527 -0.4232,5.85173 -4.232,16.03166 -4.232,16.03166 z" inkscape:connector-curvature="0" id="path3172" style="color:#000000;fill:#000000;fill-opacity:1;fill-rule:nonzero;stroke:none;stroke-width:2;marker:none;visibility:visible;display:inline;overflow:visible;enable-background:accumulate"/>
    <path d="m 1228.454,247.86217 c 0,0 -9.6182,11.84196 -3.3856,11.2187 6.2326,-0.62327 33.5484,3.18555 33.5484,3.18555 l -11.3111,-5.33234 10.3877,-2.5623 -9.3874,-2.70079 4.8476,-0.34626" inkscape:connector-curvature="0" id="path3174" style="color:#000000;fill:#ffffff;fill-opacity:1;fill-rule:nonzero;stroke:none;stroke-width:2;marker:none;visibility:visible;display:inline;overflow:visible;enable-background:accumulate"/>
    <path d="m 1217.7574,149.22825 c -42.1506,30.9169 -18.8425,78.82728 19.5069,87.46716 -23.6569,-20.85864 2.7548,-21.13074 -19.8124,-45.06215 l 28.7451,-5.69456 -29.4167,-7.13203 28.201,-4.75865 -25.7223,-6.25757 24.4252,-5.57574 -26.7336,-4.88119 29.8114,-4.39847" inkscape:connector-curvature="0" id="path3176" style="color:#000000;fill:#ffffff;fill-opacity:1;fill-rule:nonzero;stroke:none;stroke-width:2;marker:none;visibility:visible;display:inline;overflow:visible;enable-background:accumulate"/>
    <path d="m 1227.9539,277.27662 c -48.4061,-12.39968 -66.8437,29.7945 -51.3998,80.88542 3.1524,65.95792 -27.1661,123.98403 21.6987,137.87917 14.6197,4.01657 42.3202,6.71737 42.3202,6.71737 -76.8701,-50.76712 -7.8436,-39.13286 -9.0796,-53.32344 -2.89,-40.10855 -50.1358,-92.61172 -0.076,-104.54924 0,0 -26.1362,-8.44238 -23.0583,-12.66671 3.0778,-4.22432 27.599,-12.2254 27.599,-12.2254 0,0 -23.0547,-7.79213 -22.3622,-10.49293 0.6926,-2.70079 21.1643,-11.03506 21.1643,-11.03506 0,0 -14.8087,-1.66034 -14.0392,-5.3999 0.7694,-3.73957 14.0811,-14.75051 14.0811,-14.75051" inkscape:connector-curvature="0" id="path3178" style="color:#000000;fill:#ffffff;fill-opacity:1;fill-rule:nonzero;stroke:none;stroke-width:2;marker:none;visibility:visible;display:inline;overflow:visible;enable-background:accumulate"/>
    <path d="m 1037.2252,628.20525 c -2.8324,13.24164 5.5436,25.84504 16.1267,33.02828 11.4764,8.75428 25.761,12.13911 39.7951,13.97195 16.8511,2.7859 33.721,5.4566 50.5945,8.10255 -59.8201,-36.62821 -123.2412,-56.88871 -4.5398,-43.62826 -66.3399,-43.63274 -7.2025,-28.47044 26.6067,-31.74574 -19.3298,-16.59692 -69.7231,-11.81856 3.3621,-20.78308 4.9306,-1.83714 13.9191,-1.30046 9.9273,-9.15289 -2.3508,-5.84806 -0.9189,-12.53301 6.6513,-11.05539 4.8811,-0.63671 14.8423,-1.01806 16.6023,-1.43742 -14.7977,-9.2322 -42.4575,-21.67179 -59.3676,-15.28066 -51.1352,2.40163 -96.8104,40.50498 -105.7586,77.98066 z" inkscape:connector-curvature="0" id="path3180" style="color:#000000;fill:#000000;fill-opacity:1;fill-rule:nonzero;stroke:none;stroke-width:2;marker:none;visibility:visible;display:inline;overflow:visible;enable-background:accumulate"/>
    <path d="m 1381.8601,848.92767 c 0,0 -0.3265,2.81566 4.7335,4.23574 5.0601,1.42007 12.7861,-1.86079 12.7861,-1.86079 l -3.6454,5.23958 4.4343,0.34277 -3.9446,4.35816 4.7608,-0.29381 -3.5094,5.92513 4.1351,-0.41623 c 0,0 1.061,3.55018 -1.9315,4.72541 -2.9925,1.17523 -16.3499,-2.81566 -18.6351,-4.77438 -2.2852,-1.95872 -3.1557,-4.26022 -2.802,-5.53338 0.3536,-1.27317 3.6182,-11.9482 3.6182,-11.9482 z" inkscape:connector-curvature="0" id="path3187" style="color:#000000;fill:#000000;fill-opacity:1;fill-rule:nonzero;stroke:none;stroke-width:2;marker:none;visibility:visible;display:inline;overflow:visible;enable-background:accumulate"/>
    <path d="m 1310.161,756.27715 4.4888,-1.59146 -0.6801,4.97025 1.605,1.49353 -2.0131,2.39943 2.4484,3.01153 0.2448,3.62363 -6.8011,-0.46519 0.3537,-12.51133 z" inkscape:connector-curvature="0" id="path3189" style="color:#000000;fill:#000000;fill-opacity:1;fill-rule:nonzero;stroke:none;stroke-width:2;marker:none;visibility:visible;display:inline;overflow:visible;enable-background:accumulate"/>
    <path d="m 1016.8138,827.71127 c 0,0 -0.4353,3.23188 6.9099,2.64427 7.3452,-0.58762 11.9156,-0.83246 11.9156,-0.83246 l -5.4953,5.09267 4.0806,1.71388 -2.394,2.69324 4.1895,0.68556 -3.9718,3.6726 c 0,0 2.1763,1.02832 -3.1557,2.79117 -5.3321,1.76285 -14.0375,0.29381 -14.0375,0.29381 z" inkscape:connector-curvature="0" id="path3193" style="color:#000000;fill:#000000;fill-opacity:1;fill-rule:nonzero;stroke:none;stroke-width:2;marker:none;visibility:visible;display:inline;overflow:visible;enable-background:accumulate"/>
    <path d="m 1235.5273,529.85318 c -9.2986,0.48673 -17.5821,-2.45169 -25.7512,-2.46054 -3.8857,3.23074 -7.7854,9.14201 -8.938,13.44852 3.523,8.60168 18.5862,9.51724 26.3103,11.3904 -12.0541,-9.50698 -14.5224,-10.60696 0.054,-12.82962 -16.1879,-6.23272 -0.8013,-7.34036 8.3245,-9.54876 z" inkscape:connector-curvature="0" id="path3196" style="color:#000000;fill:#ffffff;fill-opacity:1;fill-rule:nonzero;stroke:none;stroke-width:2;marker:none;visibility:visible;display:inline;overflow:visible;enable-background:accumulate"/>
    <path d="m 1053.1811,471.47723 c -2.847,5.47084 0.3848,11.21869 -9.7721,9.97217 -10.1568,-1.24652 -10.0799,-4.57058 -14.158,0.48476 -4.0781,5.05534 -5.771,7.89464 -12.0036,7.89464 -6.2326,0 -12.1574,-4.91684 -13.8502,0.76176 -1.6928,5.6786 -16.08167,8.2409 -16.08167,8.2409 0,0 8.0793,7.20212 10.54157,6.64811 2.4623,-0.55401 17.6975,-7.34063 37.0109,-13.85024 19.3134,-6.50962 21.314,-6.50962 21.8526,-9.07191" inkscape:connector-curvature="0" id="path3207" style="color:#000000;fill:#ffffff;fill-opacity:1;fill-rule:nonzero;stroke:none;stroke-width:2;marker:none;visibility:visible;display:inline;overflow:visible;enable-background:accumulate"/>
  </g>
</svg>
